<svg xmlns="http://www.w3.org/2000/svg" width="62" height="40" viewBox="0 0 62 40"><defs><style>.a{fill:none;}.b{fill:#009789;}</style></defs><rect class="a" width="62" height="40"/><g transform="translate(3.151 2.099)"><path class="b" d="M25.646,1.875,50.165,12.43,25.135,0,6,11.364,10.887,13.3Z" transform="translate(2.523)"/><path d="M5.862,10.662l1.207-.17.8-.128,1.421-.284h.156a.157.157,0,0,1,.142.17l-2.6,10.384a27.3,27.3,0,0,1,2.4-3.168,4.5,4.5,0,0,1,3-1.733,1.889,1.889,0,0,1,1.065.369,1.421,1.421,0,0,1,.526,1.264,2.486,2.486,0,0,1,0,.568,4.942,4.942,0,0,1-.142.625l-1.7,5.611a4.26,4.26,0,0,0-.114.455,1.591,1.591,0,0,0,0,.384.4.4,0,0,0,.1.3.3.3,0,0,0,.256.085,1.264,1.264,0,0,0,.852-.5,14.49,14.49,0,0,0,1.136-1.421l.313.284a11.28,11.28,0,0,1-1.421,1.776,2.969,2.969,0,0,1-2.031.994,1.108,1.108,0,0,1-.781-.284,1.122,1.122,0,0,1-.327-.838,1.72,1.72,0,0,1,0-.284.486.486,0,0,1,.071-.313l1.79-6.819a1.122,1.122,0,0,0,0-.185.824.824,0,0,0-.156-.668.71.71,0,0,0-.469-.17c-.526,0-1.179.426-1.975,1.264a15.9,15.9,0,0,0-2,2.557,9.815,9.815,0,0,0-.852,1.733c-.185.54-.554,1.79-1.094,3.75H3.66l3.722-14.12a1.605,1.605,0,0,0,0-.256,1.009,1.009,0,0,0,0-.2c0-.341-.114-.54-.327-.6a4.091,4.091,0,0,0-1.25,0v-.426Zm37.048,1.08a1.136,1.136,0,0,1-.256.7.867.867,0,0,1-.71.327.938.938,0,0,1-.653-.241.852.852,0,0,1-.256-.6,2.67,2.67,0,0,1,.227-.8.341.341,0,0,0-.156-.27.753.753,0,0,0-.4-.1c-.753,0-1.421.625-1.889,1.861a24.946,24.946,0,0,0-.966,3.637h2.585l-.156.767H37.7l-1.7,7.515a15.868,15.868,0,0,1-1.847,4.9A3.4,3.4,0,0,1,31.2,31.275a2.046,2.046,0,0,1-1.35-.455,1.321,1.321,0,0,1-.526-1.009,1.037,1.037,0,0,1,.227-.639.781.781,0,0,1,.668-.313.994.994,0,0,1,.682.256.866.866,0,0,1,.227.739.724.724,0,0,1-.114.412,1.207,1.207,0,0,0-.128.313c0,.071,0,.128.142.17a.98.98,0,0,0,.341.071c.653,0,1.207-.526,1.662-1.563a10.91,10.91,0,0,0,.7-2.244l2.088-9.944H33.691l.156-.781h2.188A13.5,13.5,0,0,1,37.625,12.3a3.793,3.793,0,0,1,3.225-1.989,2.358,2.358,0,0,1,1.421.455,1.321,1.321,0,0,1,.6,1.023Zm4.716,4.148a2.841,2.841,0,0,1,2.046.639,1.833,1.833,0,0,1,.625,1.236,1.08,1.08,0,0,1-.994,1.151h-.1a.952.952,0,0,1-.71-.27.838.838,0,0,1-.284-.653,1.335,1.335,0,0,1,.185-.653,1.548,1.548,0,0,0,.2-.44.412.412,0,0,0-.242-.355A1.42,1.42,0,0,0,47.6,16.4a3.878,3.878,0,0,0-3.253,2.088,8.083,8.083,0,0,0-1.421,4.446,3.353,3.353,0,0,0,.554,2.046,1.946,1.946,0,0,0,1.662.753,3.338,3.338,0,0,0,1.733-.511A6.932,6.932,0,0,0,48.422,23.9l.085-.1.341.256a8.722,8.722,0,0,1-1.563,1.591,5.029,5.029,0,0,1-2.955.966,3.381,3.381,0,0,1-2.514-.994,3.736,3.736,0,0,1-.966-2.713A6.833,6.833,0,0,1,43,18.064a6.321,6.321,0,0,1,4.588-2.188Z" transform="translate(1.539 4.239)"/><path class="b" d="M19.379,10.421a3.381,3.381,0,0,1-.085.526L15.7,26.146h0A9.461,9.461,0,0,1,18.413,9.384h.142a1.321,1.321,0,0,1,.327,0,.6.6,0,0,1,.426.256.7.7,0,0,1,.114.327A2.174,2.174,0,0,1,19.379,10.421ZM21.836,9l-2.259,9.944a17.047,17.047,0,0,1,2.017-2.614,4.787,4.787,0,0,1,3.1-1.421,3.21,3.21,0,0,1,2.472.909,3.409,3.409,0,0,1,1.009,2.4,8.779,8.779,0,0,1-2.77,6.449,8.594,8.594,0,0,1-5.938,3.1,5.866,5.866,0,0,1-.71,0A9.55,9.55,0,1,0,23.683,9.313,9.134,9.134,0,0,0,21.836,9Z" transform="translate(4.927 3.785)"/><path class="b" d="M22.148,21.569c-1.335,2.131-2.841,3.239-4.461,3.3a1.619,1.619,0,0,1-1.108-.284,1.094,1.094,0,0,1-.369-.838,12.785,12.785,0,0,1,1.534-5.682c1.25-2.628,2.6-3.963,4.063-4.02a1.833,1.833,0,0,1,1.421.582,2.415,2.415,0,0,1,.625,1.676A9.361,9.361,0,0,1,22.148,21.569Z" transform="translate(6.817 5.904)"/><path d="M19.675,1.875,44.193,12.43,19.163,0,0,11.364,4.915,13.3Z"/><rect class="b" width="25.669" height="1.321" transform="translate(4.588 32.744)"/><rect class="b" width="16.166" height="1.321" transform="translate(37.659 32.744)"/></g></svg>